<svg width="226" height="128" viewBox="0 0 226 128" fill="none" xmlns="http://www.w3.org/2000/svg">
<g filter="url(#filter0_dd_94_1008)">
<rect x="3" y="2" width="220" height="122" rx="10" fill="white" shape-rendering="crispEdges"/>
<rect x="3.5" y="2.5" width="219" height="121" rx="9.5" stroke="#F2A618" stroke-opacity="0.2" shape-rendering="crispEdges"/>
<rect x="97" y="15" width="32" height="32" rx="16" fill="#F2A618" fill-opacity="0.2"/>
<g clip-path="url(#clip0_94_1008)">
<path d="M113.001 37.6673C116.683 37.6673 119.667 34.6825 119.667 31.0007C119.667 27.3188 116.683 24.334 113.001 24.334C109.319 24.334 106.334 27.3188 106.334 31.0007C106.334 34.6825 109.319 37.6673 113.001 37.6673Z" stroke="#F2A618" stroke-width="1.33333" stroke-linecap="round" stroke-linejoin="round"/>
<path d="M111 30.9993L112.333 32.3327L115 29.666" stroke="#F2A618" stroke-width="1.33333" stroke-linecap="round" stroke-linejoin="round"/>
</g>
<rect x="57" y="55" width="112" height="8" rx="4" fill="#F2A618" fill-opacity="0.25"/>
<rect x="16" y="71" width="194" height="6" rx="3" fill="#F2A618" fill-opacity="0.15"/>
<rect x="40.25" y="81" width="145.5" height="6" rx="3" fill="#F2A618" fill-opacity="0.15"/>
<rect x="16.5" y="95.5" width="193" height="15" rx="3.5" stroke="#F2A618" stroke-opacity="0.4" stroke-dasharray="3 2"/>
<rect x="85" y="100" width="56" height="6" rx="3" fill="#F2A618" fill-opacity="0.6"/>
</g>
<defs>
<filter id="filter0_dd_94_1008" x="0" y="0" width="226" height="128" filterUnits="userSpaceOnUse" color-interpolation-filters="sRGB">
<feFlood flood-opacity="0" result="BackgroundImageFix"/>
<feColorMatrix in="SourceAlpha" type="matrix" values="0 0 0 0 0 0 0 0 0 0 0 0 0 0 0 0 0 0 127 0" result="hardAlpha"/>
<feOffset dy="1"/>
<feGaussianBlur stdDeviation="1.5"/>
<feComposite in2="hardAlpha" operator="out"/>
<feColorMatrix type="matrix" values="0 0 0 0 0 0 0 0 0 0 0 0 0 0 0 0 0 0 0.06 0"/>
<feBlend mode="normal" in2="BackgroundImageFix" result="effect1_dropShadow_94_1008"/>
<feColorMatrix in="SourceAlpha" type="matrix" values="0 0 0 0 0 0 0 0 0 0 0 0 0 0 0 0 0 0 127 0" result="hardAlpha"/>
<feOffset dy="1"/>
<feGaussianBlur stdDeviation="1"/>
<feComposite in2="hardAlpha" operator="out"/>
<feColorMatrix type="matrix" values="0 0 0 0 0 0 0 0 0 0 0 0 0 0 0 0 0 0 0.04 0"/>
<feBlend mode="normal" in2="effect1_dropShadow_94_1008" result="effect2_dropShadow_94_1008"/>
<feBlend mode="normal" in="SourceGraphic" in2="effect2_dropShadow_94_1008" result="shape"/>
</filter>
<clipPath id="clip0_94_1008">
<rect width="16" height="16" fill="white" transform="translate(105 23)"/>
</clipPath>
</defs>
</svg>
