<svg width="226" height="132" viewBox="0 0 226 132" fill="none" xmlns="http://www.w3.org/2000/svg">
<g filter="url(#filter0_dd_94_1018)">
<rect x="3" y="2" width="220" height="126" rx="10" fill="white" shape-rendering="crispEdges"/>
<rect x="3.5" y="2.5" width="219" height="125" rx="9.5" stroke="#F2A618" stroke-opacity="0.2" shape-rendering="crispEdges"/>
<rect x="16" y="15" width="20" height="20" rx="10" fill="#F2A618" fill-opacity="0.15"/>
<rect x="42" y="15" width="64" height="6" rx="3" fill="#F2A618" fill-opacity="0.25"/>
<rect x="42" y="25" width="168" height="24" rx="4" fill="#F2A618" fill-opacity="0.15"/>
<rect x="48" y="31" width="156" height="4" rx="2" fill="#F2A618" fill-opacity="0.1"/>
<rect x="48" y="39" width="117" height="4" rx="2" fill="#F2A618" fill-opacity="0.1"/>
<rect x="32" y="57" width="80" height="6" rx="3" fill="#F2A618" fill-opacity="0.25"/>
<rect x="32" y="67" width="152" height="24" rx="4" fill="#F2A618" fill-opacity="0.15"/>
<rect x="38" y="73" width="140" height="4" rx="2" fill="#F2A618" fill-opacity="0.25"/>
<rect x="38" y="81" width="93.33" height="4" rx="2" fill="#F2A618" fill-opacity="0.25"/>
<rect x="190" y="57" width="20" height="20" rx="10" fill="#F2A618" fill-opacity="0.6"/>
<rect x="16" y="99" width="96" height="16" rx="4" fill="#F2A618" fill-opacity="0.6"/>
</g>
<defs>
<filter id="filter0_dd_94_1018" x="0" y="0" width="226" height="132" filterUnits="userSpaceOnUse" color-interpolation-filters="sRGB">
<feFlood flood-opacity="0" result="BackgroundImageFix"/>
<feColorMatrix in="SourceAlpha" type="matrix" values="0 0 0 0 0 0 0 0 0 0 0 0 0 0 0 0 0 0 127 0" result="hardAlpha"/>
<feOffset dy="1"/>
<feGaussianBlur stdDeviation="1.5"/>
<feComposite in2="hardAlpha" operator="out"/>
<feColorMatrix type="matrix" values="0 0 0 0 0 0 0 0 0 0 0 0 0 0 0 0 0 0 0.06 0"/>
<feBlend mode="normal" in2="BackgroundImageFix" result="effect1_dropShadow_94_1018"/>
<feColorMatrix in="SourceAlpha" type="matrix" values="0 0 0 0 0 0 0 0 0 0 0 0 0 0 0 0 0 0 127 0" result="hardAlpha"/>
<feOffset dy="1"/>
<feGaussianBlur stdDeviation="1"/>
<feComposite in2="hardAlpha" operator="out"/>
<feColorMatrix type="matrix" values="0 0 0 0 0 0 0 0 0 0 0 0 0 0 0 0 0 0 0.04 0"/>
<feBlend mode="normal" in2="effect1_dropShadow_94_1018" result="effect2_dropShadow_94_1018"/>
<feBlend mode="normal" in="SourceGraphic" in2="effect2_dropShadow_94_1018" result="shape"/>
</filter>
</defs>
</svg>
