<svg width="512" height="512" viewBox="0 0 512 512" fill="none" xmlns="http://www.w3.org/2000/svg">
<path d="M218.012 36C353.628 36.0002 493.974 122.421 510.662 223.742C527.947 381.684 374.498 476.449 238.881 476.449C103.265 476.449 -24.5623 335.791 4.04543 193.346C32.0585 92.6206 82.396 36 218.012 36ZM192.99 105.39C173.918 101.814 132.077 102.648 117.296 134.594C125.839 143.335 142.091 176.672 138.753 240.087V360.48C139.349 386.109 136.011 424.954 210.87 395.393C204.91 382.876 198.712 353.791 221.598 337.58C205.109 324.667 181.069 292.045 216.83 264.867C204.512 242.02 225.651 203.015 315.767 209.69C286.96 210.684 233.637 221.611 250.802 257.371C254.577 268.497 279.888 287.887 350.932 276.443C340.005 284.191 304.681 295.278 250.802 277.636C239.081 286.179 222.671 308.867 250.802 331.276C265.106 339.819 305.159 354.759 350.932 346.177C335.436 351.938 295.503 360.6 259.743 349.156C247.624 357.699 230.658 380.387 259.743 402.797C300.867 414.717 381.686 419.366 375.964 342.601C390.07 330.879 409.817 299.926 375.964 269.888C397.421 223.995 342.111 155.097 240.075 201.347C242.459 171.944 236.379 111.588 192.99 105.39Z" fill="white"/>
</svg>
