<svg width="241" height="120" viewBox="0 0 241 120" fill="none" xmlns="http://www.w3.org/2000/svg">
<rect width="240.39" height="120" fill="url(#paint0_linear_1_9603)"/>
<rect x="12" y="12" width="82.22" height="96" rx="12" fill="#FAFAF9"/>
<rect x="18" y="22" width="70.22" height="40" rx="4" fill="#131720" fill-opacity="0.1"/>
<g clip-path="url(#clip0_1_9603)">
<path d="M107.022 37.9564C107.04 37.9195 107.069 37.8884 107.103 37.8667C107.138 37.845 107.179 37.8335 107.22 37.8335C107.261 37.8335 107.301 37.845 107.336 37.8667C107.371 37.8884 107.4 37.9195 107.418 37.9564L108.38 39.906C108.444 40.0343 108.537 40.1453 108.653 40.2295C108.769 40.3137 108.903 40.3685 109.045 40.3893L111.197 40.7043C111.238 40.7102 111.277 40.7274 111.308 40.754C111.34 40.7805 111.363 40.8153 111.376 40.8545C111.389 40.8937 111.39 40.9357 111.38 40.9757C111.37 41.0157 111.349 41.0522 111.32 41.081L109.763 42.5968C109.661 42.6968 109.584 42.8203 109.539 42.9566C109.495 43.0929 109.485 43.238 109.509 43.3793L109.876 45.521C109.883 45.5617 109.879 45.6037 109.864 45.6421C109.848 45.6805 109.822 45.7137 109.789 45.738C109.755 45.7624 109.715 45.7768 109.674 45.7797C109.633 45.7825 109.592 45.7737 109.555 45.7543L107.631 44.7426C107.504 44.676 107.363 44.6413 107.22 44.6413C107.077 44.6413 106.936 44.676 106.809 44.7426L104.885 45.7543C104.848 45.7736 104.807 45.7823 104.766 45.7794C104.725 45.7765 104.685 45.762 104.652 45.7377C104.618 45.7134 104.592 45.6802 104.577 45.6419C104.561 45.6036 104.557 45.5617 104.564 45.521L104.931 43.3797C104.955 43.2383 104.945 43.0932 104.901 42.9568C104.856 42.8204 104.779 42.6968 104.677 42.5968L103.12 41.0814C103.09 41.0526 103.069 41.0161 103.059 40.976C103.049 40.9358 103.051 40.8937 103.063 40.8544C103.076 40.815 103.1 40.7801 103.131 40.7534C103.163 40.7268 103.202 40.7097 103.242 40.7039L105.395 40.3893C105.536 40.3687 105.671 40.3139 105.787 40.2297C105.903 40.1455 105.997 40.0344 106.06 39.906L107.022 37.9564Z" fill="#131720" fill-opacity="0.2" stroke="#131720" stroke-opacity="0.2" stroke-width="0.833333" stroke-linecap="round" stroke-linejoin="round"/>
</g>
<g clip-path="url(#clip1_1_9603)">
<path d="M119.022 37.9564C119.04 37.9195 119.069 37.8884 119.103 37.8667C119.138 37.845 119.179 37.8335 119.22 37.8335C119.261 37.8335 119.301 37.845 119.336 37.8667C119.371 37.8884 119.4 37.9195 119.418 37.9564L120.38 39.906C120.444 40.0343 120.537 40.1453 120.653 40.2295C120.769 40.3137 120.903 40.3685 121.045 40.3893L123.197 40.7043C123.238 40.7102 123.277 40.7274 123.308 40.754C123.34 40.7805 123.363 40.8153 123.376 40.8545C123.389 40.8937 123.39 40.9357 123.38 40.9757C123.37 41.0157 123.349 41.0522 123.32 41.081L121.763 42.5968C121.661 42.6968 121.584 42.8203 121.539 42.9566C121.495 43.0929 121.485 43.238 121.509 43.3793L121.876 45.521C121.883 45.5617 121.879 45.6037 121.864 45.6421C121.848 45.6805 121.822 45.7137 121.789 45.738C121.755 45.7624 121.715 45.7768 121.674 45.7797C121.633 45.7825 121.592 45.7737 121.555 45.7543L119.631 44.7426C119.504 44.676 119.363 44.6413 119.22 44.6413C119.077 44.6413 118.936 44.676 118.809 44.7426L116.885 45.7543C116.848 45.7736 116.807 45.7823 116.766 45.7794C116.725 45.7765 116.685 45.762 116.652 45.7377C116.618 45.7134 116.592 45.6802 116.577 45.6419C116.561 45.6036 116.557 45.5617 116.564 45.521L116.931 43.3797C116.955 43.2383 116.945 43.0932 116.901 42.9568C116.856 42.8204 116.779 42.6968 116.677 42.5968L115.12 41.0814C115.09 41.0526 115.069 41.0161 115.059 40.976C115.049 40.9358 115.051 40.8937 115.063 40.8544C115.076 40.815 115.1 40.7801 115.131 40.7534C115.163 40.7268 115.202 40.7097 115.242 40.7039L117.395 40.3893C117.536 40.3687 117.671 40.3139 117.787 40.2297C117.903 40.1455 117.997 40.0344 118.06 39.906L119.022 37.9564Z" fill="#131720" fill-opacity="0.2" stroke="#131720" stroke-opacity="0.2" stroke-width="0.833333" stroke-linecap="round" stroke-linejoin="round"/>
</g>
<g clip-path="url(#clip2_1_9603)">
<path d="M131.022 37.9564C131.04 37.9195 131.069 37.8884 131.103 37.8667C131.138 37.845 131.179 37.8335 131.22 37.8335C131.261 37.8335 131.301 37.845 131.336 37.8667C131.371 37.8884 131.4 37.9195 131.418 37.9564L132.38 39.906C132.444 40.0343 132.537 40.1453 132.653 40.2295C132.769 40.3137 132.903 40.3685 133.045 40.3893L135.197 40.7043C135.238 40.7102 135.277 40.7274 135.308 40.754C135.34 40.7805 135.363 40.8153 135.376 40.8545C135.389 40.8937 135.39 40.9357 135.38 40.9757C135.37 41.0157 135.349 41.0522 135.32 41.081L133.763 42.5968C133.661 42.6968 133.584 42.8203 133.539 42.9566C133.495 43.0929 133.485 43.238 133.509 43.3793L133.876 45.521C133.883 45.5617 133.879 45.6037 133.864 45.6421C133.848 45.6805 133.822 45.7137 133.789 45.738C133.755 45.7624 133.715 45.7768 133.674 45.7797C133.633 45.7825 133.592 45.7737 133.555 45.7543L131.631 44.7426C131.504 44.676 131.363 44.6413 131.22 44.6413C131.077 44.6413 130.936 44.676 130.809 44.7426L128.885 45.7543C128.848 45.7736 128.807 45.7823 128.766 45.7794C128.725 45.7765 128.685 45.762 128.652 45.7377C128.618 45.7134 128.592 45.6802 128.577 45.6419C128.561 45.6036 128.557 45.5617 128.564 45.521L128.931 43.3797C128.955 43.2383 128.945 43.0932 128.901 42.9568C128.856 42.8204 128.779 42.6968 128.677 42.5968L127.12 41.0814C127.09 41.0526 127.069 41.0161 127.059 40.976C127.049 40.9358 127.051 40.8937 127.063 40.8544C127.076 40.815 127.1 40.7801 127.131 40.7534C127.163 40.7268 127.202 40.7097 127.242 40.7039L129.395 40.3893C129.536 40.3687 129.671 40.3139 129.787 40.2297C129.903 40.1455 129.997 40.0344 130.06 39.906L131.022 37.9564Z" fill="#131720" fill-opacity="0.2" stroke="#131720" stroke-opacity="0.2" stroke-width="0.833333" stroke-linecap="round" stroke-linejoin="round"/>
</g>
<g clip-path="url(#clip3_1_9603)">
<path d="M143.022 37.9564C143.04 37.9195 143.069 37.8884 143.103 37.8667C143.138 37.845 143.179 37.8335 143.22 37.8335C143.261 37.8335 143.301 37.845 143.336 37.8667C143.371 37.8884 143.4 37.9195 143.418 37.9564L144.38 39.906C144.444 40.0343 144.537 40.1453 144.653 40.2295C144.769 40.3137 144.903 40.3685 145.045 40.3893L147.197 40.7043C147.238 40.7102 147.277 40.7274 147.308 40.754C147.34 40.7805 147.363 40.8153 147.376 40.8545C147.389 40.8937 147.39 40.9357 147.38 40.9757C147.37 41.0157 147.349 41.0522 147.32 41.081L145.763 42.5968C145.661 42.6968 145.584 42.8203 145.539 42.9566C145.495 43.0929 145.485 43.238 145.509 43.3793L145.876 45.521C145.883 45.5617 145.879 45.6037 145.864 45.6421C145.848 45.6805 145.822 45.7137 145.789 45.738C145.755 45.7624 145.715 45.7768 145.674 45.7797C145.633 45.7825 145.592 45.7737 145.555 45.7543L143.631 44.7426C143.504 44.676 143.363 44.6413 143.22 44.6413C143.077 44.6413 142.936 44.676 142.809 44.7426L140.885 45.7543C140.848 45.7736 140.807 45.7823 140.766 45.7794C140.725 45.7765 140.685 45.762 140.652 45.7377C140.618 45.7134 140.592 45.6802 140.577 45.6419C140.561 45.6036 140.557 45.5617 140.564 45.521L140.931 43.3797C140.955 43.2383 140.945 43.0932 140.901 42.9568C140.856 42.8204 140.779 42.6968 140.677 42.5968L139.12 41.0814C139.09 41.0526 139.069 41.0161 139.059 40.976C139.049 40.9358 139.051 40.8937 139.063 40.8544C139.076 40.815 139.1 40.7801 139.131 40.7534C139.163 40.7268 139.202 40.7097 139.242 40.7039L141.395 40.3893C141.536 40.3687 141.671 40.3139 141.787 40.2297C141.903 40.1455 141.997 40.0344 142.06 39.906L143.022 37.9564Z" fill="#131720" fill-opacity="0.2" stroke="#131720" stroke-opacity="0.2" stroke-width="0.833333" stroke-linecap="round" stroke-linejoin="round"/>
</g>
<g clip-path="url(#clip4_1_9603)">
<path d="M155.022 37.9564C155.04 37.9195 155.069 37.8884 155.103 37.8667C155.138 37.845 155.179 37.8335 155.22 37.8335C155.261 37.8335 155.301 37.845 155.336 37.8667C155.371 37.8884 155.4 37.9195 155.418 37.9564L156.38 39.906C156.444 40.0343 156.537 40.1453 156.653 40.2295C156.769 40.3137 156.903 40.3685 157.045 40.3893L159.197 40.7043C159.238 40.7102 159.277 40.7274 159.308 40.754C159.34 40.7805 159.363 40.8153 159.376 40.8545C159.389 40.8937 159.39 40.9357 159.38 40.9757C159.37 41.0157 159.349 41.0522 159.32 41.081L157.763 42.5968C157.661 42.6968 157.584 42.8203 157.539 42.9566C157.495 43.0929 157.485 43.238 157.509 43.3793L157.876 45.521C157.883 45.5617 157.879 45.6037 157.864 45.6421C157.848 45.6805 157.822 45.7137 157.789 45.738C157.755 45.7624 157.715 45.7768 157.674 45.7797C157.633 45.7825 157.592 45.7737 157.555 45.7543L155.631 44.7426C155.504 44.676 155.363 44.6413 155.22 44.6413C155.077 44.6413 154.936 44.676 154.809 44.7426L152.885 45.7543C152.848 45.7736 152.807 45.7823 152.766 45.7794C152.725 45.7765 152.685 45.762 152.652 45.7377C152.618 45.7134 152.592 45.6802 152.577 45.6419C152.561 45.6036 152.557 45.5617 152.564 45.521L152.931 43.3797C152.955 43.2383 152.945 43.0932 152.901 42.9568C152.856 42.8204 152.779 42.6968 152.677 42.5968L151.12 41.0814C151.09 41.0526 151.069 41.0161 151.059 40.976C151.049 40.9358 151.051 40.8937 151.063 40.8544C151.076 40.815 151.1 40.7801 151.131 40.7534C151.163 40.7268 151.202 40.7097 151.242 40.7039L153.395 40.3893C153.536 40.3687 153.671 40.3139 153.787 40.2297C153.903 40.1455 153.997 40.0344 154.06 39.906L155.022 37.9564Z" fill="#131720" fill-opacity="0.2" stroke="#131720" stroke-opacity="0.2" stroke-width="0.833333" stroke-linecap="round" stroke-linejoin="round"/>
</g>
<rect x="102.22" y="53" width="126.17" height="6" rx="3" fill="#131720" fill-opacity="0.2"/>
<rect x="102.22" y="65" width="94.63" height="6" rx="3" fill="#131720" fill-opacity="0.2"/>
<rect x="102.22" y="77" width="63.08" height="6" rx="3" fill="#131720" fill-opacity="0.15"/>
<defs>
<clipPath id="clip0_1_9603">
<rect width="10" height="10" fill="white" transform="translate(102.22 37)"/>
</clipPath>
<clipPath id="clip1_1_9603">
<rect width="10" height="10" fill="white" transform="translate(114.22 37)"/>
</clipPath>
<clipPath id="clip2_1_9603">
<rect width="10" height="10" fill="white" transform="translate(126.22 37)"/>
</clipPath>
<clipPath id="clip3_1_9603">
<rect width="10" height="10" fill="white" transform="translate(138.22 37)"/>
</clipPath>
<clipPath id="clip4_1_9603">
<rect width="10" height="10" fill="white" transform="translate(150.22 37)"/>
</clipPath>
<linearGradient id="paint0_linear_1_9603" x1="72.2418" y1="-36.0623" x2="168.148" y2="156.062" gradientUnits="userSpaceOnUse">
<stop stop-color="#F0F2F5"/>
<stop offset="1" stop-color="#FAFAF9"/>
</linearGradient>
</defs>
</svg>
