<svg width="226" height="182" viewBox="0 0 226 182" fill="none" xmlns="http://www.w3.org/2000/svg">
<g filter="url(#filter0_dd_94_955)">
<rect x="3" y="2" width="220" height="176" rx="10" fill="white" shape-rendering="crispEdges"/>
<rect x="3.5" y="2.5" width="219" height="175" rx="9.5" stroke="#F2A618" stroke-opacity="0.2" shape-rendering="crispEdges"/>
<rect x="16" y="15" width="40" height="8" rx="4" fill="#F2A618" fill-opacity="0.25"/>
<rect x="16" y="27" width="194" height="64" rx="4" fill="#F2A618" fill-opacity="0.15"/>
<path d="M118.833 51.5H107.167C106.246 51.5 105.5 52.2462 105.5 53.1667V64.8333C105.5 65.7538 106.246 66.5 107.167 66.5H118.833C119.754 66.5 120.5 65.7538 120.5 64.8333V53.1667C120.5 52.2462 119.754 51.5 118.833 51.5Z" stroke="#F2A618" stroke-opacity="0.4" stroke-width="1.66667" stroke-linecap="round" stroke-linejoin="round"/>
<path d="M110.501 58.1673C111.421 58.1673 112.167 57.4211 112.167 56.5007C112.167 55.5802 111.421 54.834 110.501 54.834C109.58 54.834 108.834 55.5802 108.834 56.5007C108.834 57.4211 109.58 58.1673 110.501 58.1673Z" stroke="#F2A618" stroke-opacity="0.4" stroke-width="1.66667" stroke-linecap="round" stroke-linejoin="round"/>
<path d="M120.5 61.4991L117.928 58.9274C117.616 58.615 117.192 58.4395 116.75 58.4395C116.308 58.4395 115.884 58.615 115.572 58.9274L108 66.4991" stroke="#F2A618" stroke-opacity="0.4" stroke-width="1.66667" stroke-linecap="round" stroke-linejoin="round"/>
<rect x="16" y="95" width="96" height="8" rx="4" fill="#F2A618" fill-opacity="0.25"/>
<rect x="16" y="107" width="194" height="6" rx="3" fill="#F2A618" fill-opacity="0.15"/>
<rect x="16" y="117" width="129.33" height="6" rx="3" fill="#F2A618" fill-opacity="0.15"/>
<g clip-path="url(#clip0_94_955)">
<path d="M20.8015 131.957C20.8198 131.92 20.848 131.889 20.883 131.867C20.9179 131.845 20.9583 131.834 20.9994 131.834C21.0406 131.834 21.081 131.845 21.1159 131.867C21.1509 131.889 21.1791 131.92 21.1974 131.957L22.1599 133.906C22.2233 134.035 22.3169 134.146 22.4326 134.23C22.5484 134.314 22.6828 134.369 22.8244 134.39L24.9769 134.705C25.0177 134.711 25.0561 134.728 25.0876 134.754C25.1191 134.781 25.1425 134.816 25.1553 134.855C25.168 134.894 25.1696 134.936 25.1597 134.976C25.1498 135.016 25.129 135.053 25.0994 135.081L23.5428 136.597C23.4401 136.697 23.3633 136.821 23.319 136.957C23.2746 137.093 23.2641 137.238 23.2882 137.38L23.6557 139.521C23.6629 139.562 23.6585 139.604 23.643 139.643C23.6275 139.681 23.6015 139.714 23.568 139.739C23.5345 139.763 23.4949 139.777 23.4536 139.78C23.4123 139.783 23.371 139.774 23.3344 139.755L21.4103 138.743C21.2835 138.677 21.1424 138.642 20.9992 138.642C20.856 138.642 20.715 138.677 20.5882 138.743L18.6644 139.755C18.6279 139.774 18.5867 139.783 18.5455 139.78C18.5042 139.777 18.4647 139.763 18.4312 139.738C18.3978 139.714 18.3719 139.681 18.3564 139.642C18.3409 139.604 18.3365 139.562 18.3436 139.521L18.7107 137.38C18.7349 137.239 18.7244 137.094 18.6801 136.957C18.6357 136.821 18.5589 136.697 18.4561 136.597L16.8994 135.082C16.8697 135.053 16.8486 135.017 16.8386 134.976C16.8286 134.936 16.83 134.894 16.8428 134.855C16.8556 134.816 16.8791 134.781 16.9108 134.754C16.9425 134.727 16.981 134.71 17.0219 134.704L19.174 134.39C19.3158 134.369 19.4504 134.314 19.5664 134.23C19.6823 134.146 19.776 134.035 19.8394 133.906L20.8015 131.957Z" fill="#F2A618" fill-opacity="0.7" stroke="#F2A618" stroke-opacity="0.7" stroke-width="0.833333" stroke-linecap="round" stroke-linejoin="round"/>
</g>
<g clip-path="url(#clip1_94_955)">
<path d="M32.8015 131.957C32.8198 131.92 32.848 131.889 32.883 131.867C32.9179 131.845 32.9583 131.834 32.9994 131.834C33.0406 131.834 33.081 131.845 33.1159 131.867C33.1509 131.889 33.1791 131.92 33.1974 131.957L34.1599 133.906C34.2233 134.035 34.3169 134.146 34.4326 134.23C34.5484 134.314 34.6828 134.369 34.8244 134.39L36.9769 134.705C37.0177 134.711 37.0561 134.728 37.0876 134.754C37.1191 134.781 37.1425 134.816 37.1553 134.855C37.168 134.894 37.1696 134.936 37.1597 134.976C37.1498 135.016 37.129 135.053 37.0994 135.081L35.5428 136.597C35.4401 136.697 35.3633 136.821 35.319 136.957C35.2746 137.093 35.2641 137.238 35.2882 137.38L35.6557 139.521C35.6629 139.562 35.6585 139.604 35.643 139.643C35.6275 139.681 35.6015 139.714 35.568 139.739C35.5345 139.763 35.4949 139.777 35.4536 139.78C35.4123 139.783 35.371 139.774 35.3344 139.755L33.4103 138.743C33.2835 138.677 33.1424 138.642 32.9992 138.642C32.856 138.642 32.715 138.677 32.5882 138.743L30.6644 139.755C30.6279 139.774 30.5867 139.783 30.5455 139.78C30.5042 139.777 30.4647 139.763 30.4312 139.738C30.3978 139.714 30.3719 139.681 30.3564 139.642C30.3409 139.604 30.3365 139.562 30.3436 139.521L30.7107 137.38C30.7349 137.239 30.7244 137.094 30.6801 136.957C30.6357 136.821 30.5589 136.697 30.4561 136.597L28.8994 135.082C28.8697 135.053 28.8486 135.017 28.8386 134.976C28.8286 134.936 28.83 134.894 28.8428 134.855C28.8556 134.816 28.8791 134.781 28.9108 134.754C28.9425 134.727 28.981 134.71 29.0219 134.704L31.174 134.39C31.3158 134.369 31.4504 134.314 31.5664 134.23C31.6823 134.146 31.776 134.035 31.8394 133.906L32.8015 131.957Z" fill="#F2A618" fill-opacity="0.7" stroke="#F2A618" stroke-opacity="0.7" stroke-width="0.833333" stroke-linecap="round" stroke-linejoin="round"/>
</g>
<g clip-path="url(#clip2_94_955)">
<path d="M44.8015 131.957C44.8198 131.92 44.848 131.889 44.883 131.867C44.9179 131.845 44.9583 131.834 44.9994 131.834C45.0406 131.834 45.081 131.845 45.1159 131.867C45.1509 131.889 45.1791 131.92 45.1974 131.957L46.1599 133.906C46.2233 134.035 46.3169 134.146 46.4326 134.23C46.5484 134.314 46.6828 134.369 46.8244 134.39L48.9769 134.705C49.0177 134.711 49.0561 134.728 49.0876 134.754C49.1191 134.781 49.1425 134.816 49.1553 134.855C49.168 134.894 49.1696 134.936 49.1597 134.976C49.1498 135.016 49.129 135.053 49.0994 135.081L47.5428 136.597C47.4401 136.697 47.3633 136.821 47.319 136.957C47.2746 137.093 47.2641 137.238 47.2882 137.38L47.6557 139.521C47.6629 139.562 47.6585 139.604 47.643 139.643C47.6275 139.681 47.6015 139.714 47.568 139.739C47.5345 139.763 47.4949 139.777 47.4536 139.78C47.4123 139.783 47.371 139.774 47.3344 139.755L45.4103 138.743C45.2835 138.677 45.1424 138.642 44.9992 138.642C44.856 138.642 44.715 138.677 44.5882 138.743L42.6644 139.755C42.6279 139.774 42.5867 139.783 42.5455 139.78C42.5042 139.777 42.4647 139.763 42.4312 139.738C42.3978 139.714 42.3719 139.681 42.3564 139.642C42.3409 139.604 42.3365 139.562 42.3436 139.521L42.7107 137.38C42.7349 137.239 42.7244 137.094 42.6801 136.957C42.6357 136.821 42.5589 136.697 42.4561 136.597L40.8994 135.082C40.8697 135.053 40.8486 135.017 40.8386 134.976C40.8286 134.936 40.83 134.894 40.8428 134.855C40.8556 134.816 40.8791 134.781 40.9108 134.754C40.9425 134.727 40.981 134.71 41.0219 134.704L43.174 134.39C43.3158 134.369 43.4504 134.314 43.5664 134.23C43.6823 134.146 43.776 134.035 43.8394 133.906L44.8015 131.957Z" fill="#F2A618" fill-opacity="0.7" stroke="#F2A618" stroke-opacity="0.7" stroke-width="0.833333" stroke-linecap="round" stroke-linejoin="round"/>
</g>
<g clip-path="url(#clip3_94_955)">
<path d="M56.8015 131.957C56.8198 131.92 56.848 131.889 56.883 131.867C56.9179 131.845 56.9583 131.834 56.9994 131.834C57.0406 131.834 57.081 131.845 57.1159 131.867C57.1509 131.889 57.1791 131.92 57.1974 131.957L58.1599 133.906C58.2233 134.035 58.3169 134.146 58.4326 134.23C58.5484 134.314 58.6828 134.369 58.8244 134.39L60.9769 134.705C61.0177 134.711 61.0561 134.728 61.0876 134.754C61.1191 134.781 61.1425 134.816 61.1553 134.855C61.168 134.894 61.1696 134.936 61.1597 134.976C61.1498 135.016 61.129 135.053 61.0994 135.081L59.5428 136.597C59.4401 136.697 59.3633 136.821 59.319 136.957C59.2746 137.093 59.2641 137.238 59.2882 137.38L59.6557 139.521C59.6629 139.562 59.6585 139.604 59.643 139.643C59.6275 139.681 59.6015 139.714 59.568 139.739C59.5345 139.763 59.4949 139.777 59.4536 139.78C59.4123 139.783 59.371 139.774 59.3344 139.755L57.4103 138.743C57.2835 138.677 57.1424 138.642 56.9992 138.642C56.856 138.642 56.715 138.677 56.5882 138.743L54.6644 139.755C54.6279 139.774 54.5867 139.783 54.5455 139.78C54.5042 139.777 54.4647 139.763 54.4312 139.738C54.3978 139.714 54.3719 139.681 54.3564 139.642C54.3409 139.604 54.3365 139.562 54.3436 139.521L54.7107 137.38C54.7349 137.239 54.7244 137.094 54.6801 136.957C54.6357 136.821 54.5589 136.697 54.4561 136.597L52.8994 135.082C52.8697 135.053 52.8486 135.017 52.8386 134.976C52.8286 134.936 52.83 134.894 52.8428 134.855C52.8556 134.816 52.8791 134.781 52.9108 134.754C52.9425 134.727 52.981 134.71 53.0219 134.704L55.174 134.39C55.3158 134.369 55.4504 134.314 55.5664 134.23C55.6823 134.146 55.776 134.035 55.8394 133.906L56.8015 131.957Z" fill="#F2A618" fill-opacity="0.7" stroke="#F2A618" stroke-opacity="0.7" stroke-width="0.833333" stroke-linecap="round" stroke-linejoin="round"/>
</g>
<g clip-path="url(#clip4_94_955)">
<path d="M68.8015 131.957C68.8198 131.92 68.848 131.889 68.883 131.867C68.9179 131.845 68.9583 131.834 68.9994 131.834C69.0406 131.834 69.081 131.845 69.1159 131.867C69.1509 131.889 69.1791 131.92 69.1974 131.957L70.1599 133.906C70.2233 134.035 70.3169 134.146 70.4326 134.23C70.5484 134.314 70.6828 134.369 70.8244 134.39L72.9769 134.705C73.0177 134.711 73.0561 134.728 73.0876 134.754C73.1191 134.781 73.1425 134.816 73.1553 134.855C73.168 134.894 73.1696 134.936 73.1597 134.976C73.1498 135.016 73.129 135.053 73.0994 135.081L71.5428 136.597C71.4401 136.697 71.3633 136.821 71.319 136.957C71.2746 137.093 71.2641 137.238 71.2882 137.38L71.6557 139.521C71.6629 139.562 71.6585 139.604 71.643 139.643C71.6275 139.681 71.6015 139.714 71.568 139.739C71.5345 139.763 71.4949 139.777 71.4536 139.78C71.4123 139.783 71.371 139.774 71.3344 139.755L69.4103 138.743C69.2835 138.677 69.1424 138.642 68.9992 138.642C68.856 138.642 68.715 138.677 68.5882 138.743L66.6644 139.755C66.6279 139.774 66.5867 139.783 66.5455 139.78C66.5042 139.777 66.4647 139.763 66.4312 139.738C66.3978 139.714 66.3719 139.681 66.3564 139.642C66.3409 139.604 66.3365 139.562 66.3436 139.521L66.7107 137.38C66.7349 137.239 66.7244 137.094 66.6801 136.957C66.6357 136.821 66.5589 136.697 66.4561 136.597L64.8994 135.082C64.8697 135.053 64.8486 135.017 64.8386 134.976C64.8286 134.936 64.83 134.894 64.8428 134.855C64.8556 134.816 64.8791 134.781 64.9108 134.754C64.9425 134.727 64.981 134.71 65.0219 134.704L67.174 134.39C67.3158 134.369 67.4504 134.314 67.5664 134.23C67.6823 134.146 67.776 134.035 67.8394 133.906L68.8015 131.957Z" fill="#F2A618" fill-opacity="0.7" stroke="#F2A618" stroke-opacity="0.7" stroke-width="0.833333" stroke-linecap="round" stroke-linejoin="round"/>
</g>
<rect x="16" y="149" width="80" height="16" rx="4" fill="#F2A618" fill-opacity="0.6"/>
</g>
<defs>
<filter id="filter0_dd_94_955" x="0" y="0" width="226" height="182" filterUnits="userSpaceOnUse" color-interpolation-filters="sRGB">
<feFlood flood-opacity="0" result="BackgroundImageFix"/>
<feColorMatrix in="SourceAlpha" type="matrix" values="0 0 0 0 0 0 0 0 0 0 0 0 0 0 0 0 0 0 127 0" result="hardAlpha"/>
<feOffset dy="1"/>
<feGaussianBlur stdDeviation="1.5"/>
<feComposite in2="hardAlpha" operator="out"/>
<feColorMatrix type="matrix" values="0 0 0 0 0 0 0 0 0 0 0 0 0 0 0 0 0 0 0.06 0"/>
<feBlend mode="normal" in2="BackgroundImageFix" result="effect1_dropShadow_94_955"/>
<feColorMatrix in="SourceAlpha" type="matrix" values="0 0 0 0 0 0 0 0 0 0 0 0 0 0 0 0 0 0 127 0" result="hardAlpha"/>
<feOffset dy="1"/>
<feGaussianBlur stdDeviation="1"/>
<feComposite in2="hardAlpha" operator="out"/>
<feColorMatrix type="matrix" values="0 0 0 0 0 0 0 0 0 0 0 0 0 0 0 0 0 0 0.04 0"/>
<feBlend mode="normal" in2="effect1_dropShadow_94_955" result="effect2_dropShadow_94_955"/>
<feBlend mode="normal" in="SourceGraphic" in2="effect2_dropShadow_94_955" result="shape"/>
</filter>
<clipPath id="clip0_94_955">
<rect width="10" height="10" fill="white" transform="translate(16 131)"/>
</clipPath>
<clipPath id="clip1_94_955">
<rect width="10" height="10" fill="white" transform="translate(28 131)"/>
</clipPath>
<clipPath id="clip2_94_955">
<rect width="10" height="10" fill="white" transform="translate(40 131)"/>
</clipPath>
<clipPath id="clip3_94_955">
<rect width="10" height="10" fill="white" transform="translate(52 131)"/>
</clipPath>
<clipPath id="clip4_94_955">
<rect width="10" height="10" fill="white" transform="translate(64 131)"/>
</clipPath>
</defs>
</svg>
