<svg width="226" height="152" viewBox="0 0 226 152" fill="none" xmlns="http://www.w3.org/2000/svg">
<g filter="url(#filter0_dd_94_977)">
<rect x="3" y="2" width="220" height="146" rx="10" fill="white" shape-rendering="crispEdges"/>
<rect x="3.5" y="2.5" width="219" height="145" rx="9.5" stroke="#F2A618" stroke-opacity="0.2" shape-rendering="crispEdges"/>
<rect x="16" y="15" width="8" height="8" rx="4" fill="#F2A618" fill-opacity="0.6"/>
<rect x="30" y="16" width="64" height="6" rx="3" fill="#F2A618" fill-opacity="0.25"/>
<rect x="16" y="31" width="128" height="8" rx="4" fill="#F2A618" fill-opacity="0.25"/>
<rect x="16" y="47" width="40" height="40" rx="4" fill="#F2A618" fill-opacity="0.15"/>
<rect x="64" y="51" width="146" height="6" rx="3" fill="#F2A618" fill-opacity="0.15"/>
<rect x="64" y="61" width="109.5" height="6" rx="3" fill="#F2A618" fill-opacity="0.15"/>
<rect x="16" y="95" width="194" height="6" rx="3" fill="#F2A618" fill-opacity="0.15"/>
<rect x="16" y="105" width="97" height="6" rx="3" fill="#F2A618" fill-opacity="0.15"/>
<rect x="16" y="119" width="96" height="16" rx="4" fill="#F2A618" fill-opacity="0.6"/>
</g>
<defs>
<filter id="filter0_dd_94_977" x="0" y="0" width="226" height="152" filterUnits="userSpaceOnUse" color-interpolation-filters="sRGB">
<feFlood flood-opacity="0" result="BackgroundImageFix"/>
<feColorMatrix in="SourceAlpha" type="matrix" values="0 0 0 0 0 0 0 0 0 0 0 0 0 0 0 0 0 0 127 0" result="hardAlpha"/>
<feOffset dy="1"/>
<feGaussianBlur stdDeviation="1.5"/>
<feComposite in2="hardAlpha" operator="out"/>
<feColorMatrix type="matrix" values="0 0 0 0 0 0 0 0 0 0 0 0 0 0 0 0 0 0 0.06 0"/>
<feBlend mode="normal" in2="BackgroundImageFix" result="effect1_dropShadow_94_977"/>
<feColorMatrix in="SourceAlpha" type="matrix" values="0 0 0 0 0 0 0 0 0 0 0 0 0 0 0 0 0 0 127 0" result="hardAlpha"/>
<feOffset dy="1"/>
<feGaussianBlur stdDeviation="1"/>
<feComposite in2="hardAlpha" operator="out"/>
<feColorMatrix type="matrix" values="0 0 0 0 0 0 0 0 0 0 0 0 0 0 0 0 0 0 0.04 0"/>
<feBlend mode="normal" in2="effect1_dropShadow_94_977" result="effect2_dropShadow_94_977"/>
<feBlend mode="normal" in="SourceGraphic" in2="effect2_dropShadow_94_977" result="shape"/>
</filter>
</defs>
</svg>
