<svg width="241" height="120" viewBox="0 0 241 120" fill="none" xmlns="http://www.w3.org/2000/svg">
<rect width="240.39" height="120" fill="url(#paint0_linear_1_9698)"/>
<path d="M55.7112 67.8949V63.2344L65.8412 47.2727H69.9826V53.5994H67.5799L61.6516 62.9929V63.1861H76.3213V67.8949H55.7112ZM67.6523 72V66.4702L67.773 64.4297V47.2727H73.3632V72H67.6523ZM82.5907 72.3501C81.7214 72.3501 80.9768 72.0443 80.357 71.4325C79.7453 70.8208 79.4434 70.0803 79.4515 69.2109C79.4434 68.3577 79.7453 67.6293 80.357 67.0256C80.9768 66.4138 81.7214 66.108 82.5907 66.108C83.4117 66.108 84.1361 66.4138 84.764 67.0256C85.3999 67.6293 85.7218 68.3577 85.7299 69.2109C85.7218 69.7905 85.5689 70.3177 85.2711 70.7926C84.9813 71.2675 84.599 71.6458 84.1241 71.9276C83.6572 72.2093 83.1461 72.3501 82.5907 72.3501ZM98.3592 46.9347C99.7114 46.9347 101.003 47.156 102.235 47.5987C103.466 48.0334 104.565 48.7296 105.531 49.6875C106.497 50.6373 107.258 51.889 107.813 53.4425C108.368 54.996 108.646 56.8916 108.646 59.1293C108.654 61.1899 108.413 63.0372 107.922 64.6712C107.431 66.2971 106.726 67.6816 105.809 68.8246C104.899 69.9676 103.804 70.8409 102.525 71.4446C101.245 72.0402 99.8161 72.3381 98.2384 72.3381C96.4998 72.3381 94.9664 72.004 93.6383 71.3359C92.3182 70.6598 91.2597 69.7502 90.4628 68.6072C89.674 67.4643 89.2031 66.1844 89.0502 64.7678H94.9302C95.1153 65.5888 95.5057 66.2086 96.1013 66.6271C96.697 67.0376 97.4093 67.2429 98.2384 67.2429C99.7517 67.2429 100.883 66.5869 101.631 65.2749C102.38 63.9628 102.754 62.1799 102.754 59.9261H102.609C102.263 60.6667 101.772 61.3026 101.136 61.8338C100.508 62.3651 99.7798 62.7715 98.9508 63.0533C98.1217 63.335 97.2484 63.4759 96.3307 63.4759C94.8497 63.4759 93.5417 63.1378 92.4067 62.4616C91.2798 61.7855 90.3944 60.8558 89.7505 59.6726C89.1146 58.4893 88.7926 57.1371 88.7846 55.6158C88.7765 53.9093 89.175 52.4041 89.9799 51.1001C90.7848 49.7881 91.9077 48.7659 93.3485 48.0334C94.7893 47.2928 96.4595 46.9266 98.3592 46.9347ZM98.3954 51.5227C97.6548 51.5227 96.9948 51.6958 96.4153 52.0419C95.8438 52.388 95.393 52.8549 95.063 53.4425C94.733 54.0301 94.572 54.6901 94.58 55.4226C94.5881 56.1551 94.7531 56.8151 95.0751 57.4027C95.4051 57.9903 95.8518 58.4571 96.4153 58.8033C96.9868 59.1494 97.6387 59.3224 98.3712 59.3224C98.9186 59.3224 99.4257 59.2218 99.8925 59.0206C100.359 58.8194 100.766 58.5417 101.112 58.1875C101.458 57.8253 101.728 57.4067 101.921 56.9318C102.122 56.4569 102.219 55.9498 102.211 55.4105C102.203 54.6941 102.034 54.0421 101.704 53.4545C101.374 52.8669 100.919 52.4001 100.339 52.054C99.7678 51.6998 99.1198 51.5227 98.3954 51.5227Z" fill="#131720" fill-opacity="0.4"/>
<g clip-path="url(#clip0_1_9698)">
<path d="M127.002 43.9564C127.02 43.9195 127.049 43.8884 127.084 43.8667C127.119 43.845 127.159 43.8335 127.2 43.8335C127.241 43.8335 127.282 43.845 127.316 43.8667C127.351 43.8884 127.38 43.9195 127.398 43.9564L128.36 45.906C128.424 46.0343 128.517 46.1453 128.633 46.2295C128.749 46.3137 128.883 46.3685 129.025 46.3893L131.178 46.7043C131.218 46.7102 131.257 46.7274 131.288 46.754C131.32 46.7805 131.343 46.8153 131.356 46.8545C131.369 46.8937 131.37 46.9357 131.36 46.9757C131.35 47.0157 131.33 47.0522 131.3 47.081L129.743 48.5968C129.641 48.6968 129.564 48.8203 129.52 48.9566C129.475 49.0929 129.465 49.238 129.489 49.3793L129.856 51.521C129.863 51.5617 129.859 51.6037 129.844 51.6421C129.828 51.6805 129.802 51.7137 129.769 51.738C129.735 51.7624 129.695 51.7768 129.654 51.7797C129.613 51.7825 129.572 51.7737 129.535 51.7543L127.611 50.7426C127.484 50.676 127.343 50.6413 127.2 50.6413C127.057 50.6413 126.916 50.676 126.789 50.7426L124.865 51.7543C124.828 51.7736 124.787 51.7823 124.746 51.7794C124.705 51.7765 124.665 51.762 124.632 51.7377C124.598 51.7134 124.572 51.6802 124.557 51.6419C124.541 51.6036 124.537 51.5617 124.544 51.521L124.911 49.3797C124.936 49.2383 124.925 49.0932 124.881 48.9568C124.836 48.8204 124.759 48.6968 124.657 48.5968L123.1 47.0814C123.07 47.0526 123.049 47.0161 123.039 46.976C123.029 46.9358 123.031 46.8937 123.043 46.8544C123.056 46.815 123.08 46.7801 123.111 46.7534C123.143 46.7268 123.182 46.7097 123.223 46.7039L125.375 46.3893C125.516 46.3687 125.651 46.3139 125.767 46.2297C125.883 46.1455 125.977 46.0344 126.04 45.906L127.002 43.9564Z" fill="#131720" fill-opacity="0.3" stroke="#131720" stroke-opacity="0.3" stroke-width="0.833333" stroke-linecap="round" stroke-linejoin="round"/>
</g>
<g clip-path="url(#clip1_1_9698)">
<path d="M139.002 43.9564C139.02 43.9195 139.049 43.8884 139.084 43.8667C139.119 43.845 139.159 43.8335 139.2 43.8335C139.241 43.8335 139.282 43.845 139.316 43.8667C139.351 43.8884 139.38 43.9195 139.398 43.9564L140.36 45.906C140.424 46.0343 140.517 46.1453 140.633 46.2295C140.749 46.3137 140.883 46.3685 141.025 46.3893L143.178 46.7043C143.218 46.7102 143.257 46.7274 143.288 46.754C143.32 46.7805 143.343 46.8153 143.356 46.8545C143.369 46.8937 143.37 46.9357 143.36 46.9757C143.35 47.0157 143.33 47.0522 143.3 47.081L141.743 48.5968C141.641 48.6968 141.564 48.8203 141.52 48.9566C141.475 49.0929 141.465 49.238 141.489 49.3793L141.856 51.521C141.863 51.5617 141.859 51.6037 141.844 51.6421C141.828 51.6805 141.802 51.7137 141.769 51.738C141.735 51.7624 141.695 51.7768 141.654 51.7797C141.613 51.7825 141.572 51.7737 141.535 51.7543L139.611 50.7426C139.484 50.676 139.343 50.6413 139.2 50.6413C139.057 50.6413 138.916 50.676 138.789 50.7426L136.865 51.7543C136.828 51.7736 136.787 51.7823 136.746 51.7794C136.705 51.7765 136.665 51.762 136.632 51.7377C136.598 51.7134 136.572 51.6802 136.557 51.6419C136.541 51.6036 136.537 51.5617 136.544 51.521L136.911 49.3797C136.936 49.2383 136.925 49.0932 136.881 48.9568C136.836 48.8204 136.759 48.6968 136.657 48.5968L135.1 47.0814C135.07 47.0526 135.049 47.0161 135.039 46.976C135.029 46.9358 135.031 46.8937 135.043 46.8544C135.056 46.815 135.08 46.7801 135.111 46.7534C135.143 46.7268 135.182 46.7097 135.223 46.7039L137.375 46.3893C137.516 46.3687 137.651 46.3139 137.767 46.2297C137.883 46.1455 137.977 46.0344 138.04 45.906L139.002 43.9564Z" fill="#131720" fill-opacity="0.3" stroke="#131720" stroke-opacity="0.3" stroke-width="0.833333" stroke-linecap="round" stroke-linejoin="round"/>
</g>
<g clip-path="url(#clip2_1_9698)">
<path d="M151.002 43.9564C151.02 43.9195 151.049 43.8884 151.084 43.8667C151.119 43.845 151.159 43.8335 151.2 43.8335C151.241 43.8335 151.282 43.845 151.316 43.8667C151.351 43.8884 151.38 43.9195 151.398 43.9564L152.36 45.906C152.424 46.0343 152.517 46.1453 152.633 46.2295C152.749 46.3137 152.883 46.3685 153.025 46.3893L155.178 46.7043C155.218 46.7102 155.257 46.7274 155.288 46.754C155.32 46.7805 155.343 46.8153 155.356 46.8545C155.369 46.8937 155.37 46.9357 155.36 46.9757C155.35 47.0157 155.33 47.0522 155.3 47.081L153.743 48.5968C153.641 48.6968 153.564 48.8203 153.52 48.9566C153.475 49.0929 153.465 49.238 153.489 49.3793L153.856 51.521C153.863 51.5617 153.859 51.6037 153.844 51.6421C153.828 51.6805 153.802 51.7137 153.769 51.738C153.735 51.7624 153.695 51.7768 153.654 51.7797C153.613 51.7825 153.572 51.7737 153.535 51.7543L151.611 50.7426C151.484 50.676 151.343 50.6413 151.2 50.6413C151.057 50.6413 150.916 50.676 150.789 50.7426L148.865 51.7543C148.828 51.7736 148.787 51.7823 148.746 51.7794C148.705 51.7765 148.665 51.762 148.632 51.7377C148.598 51.7134 148.572 51.6802 148.557 51.6419C148.541 51.6036 148.537 51.5617 148.544 51.521L148.911 49.3797C148.936 49.2383 148.925 49.0932 148.881 48.9568C148.836 48.8204 148.759 48.6968 148.657 48.5968L147.1 47.0814C147.07 47.0526 147.049 47.0161 147.039 46.976C147.029 46.9358 147.031 46.8937 147.043 46.8544C147.056 46.815 147.08 46.7801 147.111 46.7534C147.143 46.7268 147.182 46.7097 147.223 46.7039L149.375 46.3893C149.516 46.3687 149.651 46.3139 149.767 46.2297C149.883 46.1455 149.977 46.0344 150.04 45.906L151.002 43.9564Z" fill="#131720" fill-opacity="0.3" stroke="#131720" stroke-opacity="0.3" stroke-width="0.833333" stroke-linecap="round" stroke-linejoin="round"/>
</g>
<g clip-path="url(#clip3_1_9698)">
<path d="M163.002 43.9564C163.02 43.9195 163.049 43.8884 163.084 43.8667C163.119 43.845 163.159 43.8335 163.2 43.8335C163.241 43.8335 163.282 43.845 163.316 43.8667C163.351 43.8884 163.38 43.9195 163.398 43.9564L164.36 45.906C164.424 46.0343 164.517 46.1453 164.633 46.2295C164.749 46.3137 164.883 46.3685 165.025 46.3893L167.178 46.7043C167.218 46.7102 167.257 46.7274 167.288 46.754C167.32 46.7805 167.343 46.8153 167.356 46.8545C167.369 46.8937 167.37 46.9357 167.36 46.9757C167.35 47.0157 167.33 47.0522 167.3 47.081L165.743 48.5968C165.641 48.6968 165.564 48.8203 165.52 48.9566C165.475 49.0929 165.465 49.238 165.489 49.3793L165.856 51.521C165.863 51.5617 165.859 51.6037 165.844 51.6421C165.828 51.6805 165.802 51.7137 165.769 51.738C165.735 51.7624 165.695 51.7768 165.654 51.7797C165.613 51.7825 165.572 51.7737 165.535 51.7543L163.611 50.7426C163.484 50.676 163.343 50.6413 163.2 50.6413C163.057 50.6413 162.916 50.676 162.789 50.7426L160.865 51.7543C160.828 51.7736 160.787 51.7823 160.746 51.7794C160.705 51.7765 160.665 51.762 160.632 51.7377C160.598 51.7134 160.572 51.6802 160.557 51.6419C160.541 51.6036 160.537 51.5617 160.544 51.521L160.911 49.3797C160.936 49.2383 160.925 49.0932 160.881 48.9568C160.836 48.8204 160.759 48.6968 160.657 48.5968L159.1 47.0814C159.07 47.0526 159.049 47.0161 159.039 46.976C159.029 46.9358 159.031 46.8937 159.043 46.8544C159.056 46.815 159.08 46.7801 159.111 46.7534C159.143 46.7268 159.182 46.7097 159.223 46.7039L161.375 46.3893C161.516 46.3687 161.651 46.3139 161.767 46.2297C161.883 46.1455 161.977 46.0344 162.04 45.906L163.002 43.9564Z" fill="#131720" fill-opacity="0.3" stroke="#131720" stroke-opacity="0.3" stroke-width="0.833333" stroke-linecap="round" stroke-linejoin="round"/>
</g>
<g clip-path="url(#clip4_1_9698)">
<path d="M175.002 43.9564C175.02 43.9195 175.049 43.8884 175.084 43.8667C175.119 43.845 175.159 43.8335 175.2 43.8335C175.241 43.8335 175.282 43.845 175.316 43.8667C175.351 43.8884 175.38 43.9195 175.398 43.9564L176.36 45.906C176.424 46.0343 176.517 46.1453 176.633 46.2295C176.749 46.3137 176.883 46.3685 177.025 46.3893L179.178 46.7043C179.218 46.7102 179.257 46.7274 179.288 46.754C179.32 46.7805 179.343 46.8153 179.356 46.8545C179.369 46.8937 179.37 46.9357 179.36 46.9757C179.35 47.0157 179.33 47.0522 179.3 47.081L177.743 48.5968C177.641 48.6968 177.564 48.8203 177.52 48.9566C177.475 49.0929 177.465 49.238 177.489 49.3793L177.856 51.521C177.863 51.5617 177.859 51.6037 177.844 51.6421C177.828 51.6805 177.802 51.7137 177.769 51.738C177.735 51.7624 177.695 51.7768 177.654 51.7797C177.613 51.7825 177.572 51.7737 177.535 51.7543L175.611 50.7426C175.484 50.676 175.343 50.6413 175.2 50.6413C175.057 50.6413 174.916 50.676 174.789 50.7426L172.865 51.7543C172.828 51.7736 172.787 51.7823 172.746 51.7794C172.705 51.7765 172.665 51.762 172.632 51.7377C172.598 51.7134 172.572 51.6802 172.557 51.6419C172.541 51.6036 172.537 51.5617 172.544 51.521L172.911 49.3797C172.936 49.2383 172.925 49.0932 172.881 48.9568C172.836 48.8204 172.759 48.6968 172.657 48.5968L171.1 47.0814C171.07 47.0526 171.049 47.0161 171.039 46.976C171.029 46.9358 171.031 46.8937 171.043 46.8544C171.056 46.815 171.08 46.7801 171.111 46.7534C171.143 46.7268 171.182 46.7097 171.223 46.7039L173.375 46.3893C173.516 46.3687 173.651 46.3139 173.767 46.2297C173.883 46.1455 173.977 46.0344 174.04 45.906L175.002 43.9564Z" fill="#131720" fill-opacity="0.3" stroke="#131720" stroke-opacity="0.3" stroke-width="0.833333" stroke-linecap="round" stroke-linejoin="round"/>
</g>
<rect x="122.2" y="57" width="64" height="4" rx="2" fill="#131720" fill-opacity="0.1"/>
<rect x="122.2" y="57" width="51.19" height="4" rx="2" fill="#131720" fill-opacity="0.3"/>
<rect x="122.2" y="65" width="64" height="4" rx="2" fill="#131720" fill-opacity="0.1"/>
<rect x="122.2" y="65" width="38.39" height="4" rx="2" fill="#131720" fill-opacity="0.3"/>
<rect x="122.2" y="73" width="64" height="4" rx="2" fill="#131720" fill-opacity="0.1"/>
<rect x="122.2" y="73" width="25.59" height="4" rx="2" fill="#131720" fill-opacity="0.3"/>
<defs>
<linearGradient id="paint0_linear_1_9698" x1="72.2418" y1="-36.0623" x2="168.148" y2="156.062" gradientUnits="userSpaceOnUse">
<stop stop-color="#F0F2F5"/>
<stop offset="1" stop-color="#FAFAF9"/>
</linearGradient>
<clipPath id="clip0_1_9698">
<rect width="10" height="10" fill="white" transform="translate(122.2 43)"/>
</clipPath>
<clipPath id="clip1_1_9698">
<rect width="10" height="10" fill="white" transform="translate(134.2 43)"/>
</clipPath>
<clipPath id="clip2_1_9698">
<rect width="10" height="10" fill="white" transform="translate(146.2 43)"/>
</clipPath>
<clipPath id="clip3_1_9698">
<rect width="10" height="10" fill="white" transform="translate(158.2 43)"/>
</clipPath>
<clipPath id="clip4_1_9698">
<rect width="10" height="10" fill="white" transform="translate(170.2 43)"/>
</clipPath>
</defs>
</svg>
