<svg width="241" height="120" viewBox="0 0 241 120" fill="none" xmlns="http://www.w3.org/2000/svg">
<rect width="240.41" height="120" fill="url(#paint0_linear_1_9679)"/>
<path d="M124.205 31C123.675 31 123.166 31.2107 122.791 31.5858C122.416 31.9609 122.205 32.4696 122.205 33V39C122.205 39.5304 122.416 40.0391 122.791 40.4142C123.166 40.7893 123.675 41 124.205 41C124.47 41 124.725 41.1054 124.912 41.2929C125.1 41.4804 125.205 41.7348 125.205 42V43C125.205 43.5304 124.994 44.0391 124.619 44.4142C124.244 44.7893 123.735 45 123.205 45C122.94 45 122.685 45.1054 122.498 45.2929C122.31 45.4804 122.205 45.7348 122.205 46V48C122.205 48.2652 122.31 48.5196 122.498 48.7071C122.685 48.8946 122.94 49 123.205 49C124.796 49 126.322 48.3679 127.448 47.2426C128.573 46.1174 129.205 44.5913 129.205 43V33C129.205 32.4696 128.994 31.9609 128.619 31.5858C128.244 31.2107 127.735 31 127.205 31H124.205Z" stroke="#131720" stroke-opacity="0.3" stroke-width="2" stroke-linecap="round" stroke-linejoin="round"/>
<path d="M113.205 31C112.675 31 112.166 31.2107 111.791 31.5858C111.416 31.9609 111.205 32.4696 111.205 33V39C111.205 39.5304 111.416 40.0391 111.791 40.4142C112.166 40.7893 112.675 41 113.205 41C113.47 41 113.725 41.1054 113.912 41.2929C114.1 41.4804 114.205 41.7348 114.205 42V43C114.205 43.5304 113.994 44.0391 113.619 44.4142C113.244 44.7893 112.735 45 112.205 45C111.94 45 111.685 45.1054 111.498 45.2929C111.31 45.4804 111.205 45.7348 111.205 46V48C111.205 48.2652 111.31 48.5196 111.498 48.7071C111.685 48.8946 111.94 49 112.205 49C113.796 49 115.322 48.3679 116.448 47.2426C117.573 46.1174 118.205 44.5913 118.205 43V33C118.205 32.4696 117.994 31.9609 117.619 31.5858C117.244 31.2107 116.735 31 116.205 31H113.205Z" stroke="#131720" stroke-opacity="0.3" stroke-width="2" stroke-linecap="round" stroke-linejoin="round"/>
<rect x="44.465" y="58" width="151.48" height="6" rx="3" fill="#131720" fill-opacity="0.2"/>
<rect x="60.6949" y="70" width="119.02" height="6" rx="3" fill="#131720" fill-opacity="0.15"/>
<rect x="107.205" y="86" width="6" height="6" rx="3" fill="#131720" fill-opacity="0.3"/>
<rect x="117.205" y="86" width="6" height="6" rx="3" fill="#131720" fill-opacity="0.2"/>
<rect x="127.205" y="86" width="6" height="6" rx="3" fill="#131720" fill-opacity="0.2"/>
<defs>
<linearGradient id="paint0_linear_1_9679" x1="72.2542" y1="-36.0655" x2="168.156" y2="156.065" gradientUnits="userSpaceOnUse">
<stop stop-color="#F0F2F5"/>
<stop offset="1" stop-color="#FAFAF9"/>
</linearGradient>
</defs>
</svg>
