<svg width="241" height="120" viewBox="0 0 241 120" fill="none" xmlns="http://www.w3.org/2000/svg">
<rect width="240.41" height="120" fill="url(#paint0_linear_1_9629)"/>
<rect x="36.3" y="16.8052" width="47.61" height="86.39" rx="12" fill="#131720" fill-opacity="0.15"/>
<g clip-path="url(#clip0_1_9629)">
<path d="M58.105 58.0022C58.1046 57.8839 58.1358 57.7676 58.1952 57.6653C58.2546 57.563 58.3402 57.4783 58.4432 57.42C58.5461 57.3617 58.6627 57.3319 58.781 57.3336C58.8993 57.3352 59.015 57.3683 59.1163 57.4295L62.4477 59.4275C62.5468 59.4866 62.629 59.5705 62.686 59.6709C62.743 59.7712 62.773 59.8847 62.773 60.0002C62.773 60.1156 62.743 60.2291 62.686 60.3295C62.629 60.4299 62.5468 60.5137 62.4477 60.5728L59.1163 62.5708C59.015 62.632 58.8992 62.6652 58.7809 62.6668C58.6625 62.6684 58.5458 62.6385 58.4429 62.5801C58.3399 62.5218 58.2543 62.437 58.1949 62.3346C58.1356 62.2322 58.1045 62.1159 58.105 61.9975V58.0022Z" stroke="#FAFAF9" stroke-width="1.33333" stroke-linecap="round" stroke-linejoin="round"/>
<path d="M60.105 66.6668C63.7869 66.6668 66.7716 63.6821 66.7716 60.0002C66.7716 56.3183 63.7869 53.3335 60.105 53.3335C56.4231 53.3335 53.4383 56.3183 53.4383 60.0002C53.4383 63.6821 56.4231 66.6668 60.105 66.6668Z" stroke="#FAFAF9" stroke-width="1.33333" stroke-linecap="round" stroke-linejoin="round"/>
</g>
<rect x="89.91" y="12" width="60.59" height="96" rx="12" fill="#131720" fill-opacity="0.15"/>
<g clip-path="url(#clip1_1_9629)">
<path d="M118.205 58.0022C118.205 57.8839 118.236 57.7676 118.295 57.6653C118.355 57.563 118.44 57.4783 118.543 57.42C118.646 57.3617 118.763 57.3319 118.881 57.3336C118.999 57.3352 119.115 57.3683 119.216 57.4295L122.548 59.4275C122.647 59.4866 122.729 59.5705 122.786 59.6709C122.843 59.7712 122.873 59.8847 122.873 60.0002C122.873 60.1156 122.843 60.2291 122.786 60.3295C122.729 60.4299 122.647 60.5137 122.548 60.5728L119.216 62.5708C119.115 62.632 118.999 62.6652 118.881 62.6668C118.763 62.6684 118.646 62.6385 118.543 62.5801C118.44 62.5218 118.354 62.437 118.295 62.3346C118.236 62.2322 118.205 62.1159 118.205 61.9975V58.0022Z" stroke="#FAFAF9" stroke-width="1.33333" stroke-linecap="round" stroke-linejoin="round"/>
<path d="M120.205 66.6668C123.887 66.6668 126.872 63.6821 126.872 60.0002C126.872 56.3183 123.887 53.3335 120.205 53.3335C116.523 53.3335 113.538 56.3183 113.538 60.0002C113.538 63.6821 116.523 66.6668 120.205 66.6668Z" stroke="#FAFAF9" stroke-width="1.33333" stroke-linecap="round" stroke-linejoin="round"/>
</g>
<rect x="156.5" y="16.8052" width="47.61" height="86.39" rx="12" fill="#131720" fill-opacity="0.15"/>
<g clip-path="url(#clip2_1_9629)">
<path d="M178.305 58.0022C178.305 57.8839 178.336 57.7676 178.395 57.6653C178.455 57.563 178.54 57.4783 178.643 57.42C178.746 57.3617 178.863 57.3319 178.981 57.3336C179.099 57.3352 179.215 57.3683 179.316 57.4295L182.648 59.4275C182.747 59.4866 182.829 59.5705 182.886 59.6709C182.943 59.7712 182.973 59.8847 182.973 60.0002C182.973 60.1156 182.943 60.2291 182.886 60.3295C182.829 60.4299 182.747 60.5137 182.648 60.5728L179.316 62.5708C179.215 62.632 179.099 62.6652 178.981 62.6668C178.863 62.6684 178.746 62.6385 178.643 62.5801C178.54 62.5218 178.454 62.437 178.395 62.3346C178.336 62.2322 178.305 62.1159 178.305 61.9975V58.0022Z" stroke="#FAFAF9" stroke-width="1.33333" stroke-linecap="round" stroke-linejoin="round"/>
<path d="M180.305 66.6668C183.987 66.6668 186.972 63.6821 186.972 60.0002C186.972 56.3183 183.987 53.3335 180.305 53.3335C176.623 53.3335 173.638 56.3183 173.638 60.0002C173.638 63.6821 176.623 66.6668 180.305 66.6668Z" stroke="#FAFAF9" stroke-width="1.33333" stroke-linecap="round" stroke-linejoin="round"/>
</g>
<defs>
<linearGradient id="paint0_linear_1_9629" x1="72.2542" y1="-36.0655" x2="168.156" y2="156.065" gradientUnits="userSpaceOnUse">
<stop stop-color="#F0F2F5"/>
<stop offset="1" stop-color="#FAFAF9"/>
</linearGradient>
<clipPath id="clip0_1_9629">
<rect width="16" height="16" fill="white" transform="translate(52.105 52)"/>
</clipPath>
<clipPath id="clip1_1_9629">
<rect width="16" height="16" fill="white" transform="translate(112.205 52)"/>
</clipPath>
<clipPath id="clip2_1_9629">
<rect width="16" height="16" fill="white" transform="translate(172.305 52)"/>
</clipPath>
</defs>
</svg>
